<svg xmlns="http://www.w3.org/2000/svg" xmlns:xlink="http://www.w3.org/1999/xlink"
    zoomAndPan="magnify" viewBox="0 0 500 374.999991" height="500"
    preserveAspectRatio="xMidYMid meet" version="1.0"> 
    <path fill="#a459d1" transform="translate(30.334242, 44.690687)"
        d="M 259.039062 161.714844 C 234.378906 154.585938 140.855469 154.585938 116.191406 161.714844 C 112.605469 166.289062 107.035156 169.222656 100.777344 169.222656 C 89.957031 169.222656 81.183594 160.441406 81.183594 149.628906 C 81.183594 138.8125 89.964844 130.039062 100.777344 130.039062 C 107.035156 130.039062 112.605469 132.972656 116.191406 137.542969 C 140.855469 144.671875 234.378906 144.671875 259.039062 137.542969 C 262.628906 132.972656 268.199219 130.039062 274.453125 130.039062 C 285.265625 130.039062 294.046875 138.820312 294.046875 149.628906 C 294.046875 160.449219 285.265625 169.222656 274.453125 169.222656 C 268.199219 169.222656 262.628906 166.289062 259.039062 161.714844 Z M 259.039062 161.714844 "
        fill-opacity="1" fill-rule="evenodd" />

    <g clip-path="url(#8918cc8cc7)">
        <path fill="#a459d1" transform="translate(30.334242, 44.690687)"
            d="M 158.621094 183.699219 L 181.003906 207.582031 C 160.363281 230.054688 128.878906 244.601562 100.296875 244.601562 C 43.421875 244.59375 2.164062 204.136719 2.164062 148.835938 C 2.164062 94.324219 44.476562 54.65625 102.675781 54.65625 C 130.988281 54.65625 161.945312 67.875 180.996094 88.5 L 158.199219 115.550781 C 148.449219 115.136719 138.746094 114.339844 129.144531 112.828125 L 129.121094 112.8125 C 121.054688 106.636719 111.171875 103.269531 101.117188 103.160156 C 94.175781 103.136719 87.164062 104.644531 80.859375 107.636719 C 65.46875 114.9375 54.972656 131.003906 54.335938 147.84375 C 53.753906 163.210938 61.347656 178.601562 73.851562 187.5 C 87.839844 197.457031 107.027344 198.675781 122.03125 190.949219 C 125.730469 189.042969 129.398438 186.382812 129.398438 186.382812 C 138.972656 184.90625 148.761719 184.117188 158.621094 183.699219 Z M 217.027344 115.542969 L 194.230469 88.5 C 213.28125 67.875 244.238281 54.65625 272.550781 54.65625 C 330.75 54.65625 373.0625 94.324219 373.0625 148.835938 C 373.0625 204.144531 331.804688 244.59375 274.925781 244.59375 C 246.347656 244.59375 214.863281 230.054688 194.222656 207.574219 L 216.609375 183.683594 C 226.507812 184.09375 236.351562 184.890625 246.078125 186.421875 L 246.101562 186.4375 C 255.953125 193.976562 268.539062 197.296875 280.632812 195.683594 C 301.894531 192.84375 318.757812 174.574219 320.71875 154.058594 C 322.210938 138.417969 315.160156 122.289062 302.71875 112.742188 C 286.382812 100.214844 262.398438 100.167969 246.085938 112.828125 C 236.542969 114.332031 226.816406 115.128906 217.027344 115.542969 Z M 217.027344 115.542969 "
            fill-opacity="1" fill-rule="nonzero" />
    </g>
</svg>