<svg xmlns="http://www.w3.org/2000/svg" xmlns:xlink="http://www.w3.org/1999/xlink" width="500" zoomAndPan="magnify" viewBox="0 0 375 374.999991" height="500" preserveAspectRatio="xMidYMid meet" version="1.0"><defs><g/><clipPath id="8918cc8cc7"><path d="M 2 54.65625 L 373.382812 54.65625 L 373.382812 244.601562 L 2 244.601562 Z M 2 54.65625 " clip-rule="nonzero"/></clipPath></defs><path fill="#2cd3e1" d="M 259.039062 161.714844 C 234.378906 154.585938 140.855469 154.585938 116.191406 161.714844 C 112.605469 166.289062 107.035156 169.222656 100.777344 169.222656 C 89.957031 169.222656 81.183594 160.441406 81.183594 149.628906 C 81.183594 138.8125 89.964844 130.039062 100.777344 130.039062 C 107.035156 130.039062 112.605469 132.972656 116.191406 137.542969 C 140.855469 144.671875 234.378906 144.671875 259.039062 137.542969 C 262.628906 132.972656 268.199219 130.039062 274.453125 130.039062 C 285.265625 130.039062 294.046875 138.820312 294.046875 149.628906 C 294.046875 160.449219 285.265625 169.222656 274.453125 169.222656 C 268.199219 169.222656 262.628906 166.289062 259.039062 161.714844 Z M 259.039062 161.714844 " fill-opacity="1" fill-rule="evenodd"/><g clip-path="url(#8918cc8cc7)"><path fill="#a459d1" d="M 158.621094 183.699219 L 181.003906 207.582031 C 160.363281 230.054688 128.878906 244.601562 100.296875 244.601562 C 43.421875 244.59375 2.164062 204.136719 2.164062 148.835938 C 2.164062 94.324219 44.476562 54.65625 102.675781 54.65625 C 130.988281 54.65625 161.945312 67.875 180.996094 88.5 L 158.199219 115.550781 C 148.449219 115.136719 138.746094 114.339844 129.144531 112.828125 L 129.121094 112.8125 C 121.054688 106.636719 111.171875 103.269531 101.117188 103.160156 C 94.175781 103.136719 87.164062 104.644531 80.859375 107.636719 C 65.46875 114.9375 54.972656 131.003906 54.335938 147.84375 C 53.753906 163.210938 61.347656 178.601562 73.851562 187.5 C 87.839844 197.457031 107.027344 198.675781 122.03125 190.949219 C 125.730469 189.042969 129.398438 186.382812 129.398438 186.382812 C 138.972656 184.90625 148.761719 184.117188 158.621094 183.699219 Z M 217.027344 115.542969 L 194.230469 88.5 C 213.28125 67.875 244.238281 54.65625 272.550781 54.65625 C 330.75 54.65625 373.0625 94.324219 373.0625 148.835938 C 373.0625 204.144531 331.804688 244.59375 274.925781 244.59375 C 246.347656 244.59375 214.863281 230.054688 194.222656 207.574219 L 216.609375 183.683594 C 226.507812 184.09375 236.351562 184.890625 246.078125 186.421875 L 246.101562 186.4375 C 255.953125 193.976562 268.539062 197.296875 280.632812 195.683594 C 301.894531 192.84375 318.757812 174.574219 320.71875 154.058594 C 322.210938 138.417969 315.160156 122.289062 302.71875 112.742188 C 286.382812 100.214844 262.398438 100.167969 246.085938 112.828125 C 236.542969 114.332031 226.816406 115.128906 217.027344 115.542969 Z M 217.027344 115.542969 " fill-opacity="1" fill-rule="nonzero"/></g><g fill="#2cd3e1" fill-opacity="1"><g transform="translate(2.334242, 306.690687)"><g><path d="M 21.265625 -7.25 C 22.492188 -7.25 23.679688 -7.429688 24.828125 -7.796875 C 25.984375 -8.171875 26.828125 -8.523438 27.359375 -8.859375 L 28.171875 -9.421875 L 31.578125 -2.59375 C 31.472656 -2.507812 31.316406 -2.394531 31.109375 -2.25 C 30.910156 -2.113281 30.445312 -1.851562 29.71875 -1.46875 C 29 -1.082031 28.226562 -0.75 27.40625 -0.46875 C 26.582031 -0.1875 25.503906 0.0664062 24.171875 0.296875 C 22.835938 0.523438 21.457031 0.640625 20.03125 0.640625 C 16.757812 0.640625 13.660156 -0.160156 10.734375 -1.765625 C 7.804688 -3.367188 5.445312 -5.578125 3.65625 -8.390625 C 1.875 -11.203125 0.984375 -14.242188 0.984375 -17.515625 C 0.984375 -19.992188 1.507812 -22.367188 2.5625 -24.640625 C 3.613281 -26.910156 5.007812 -28.851562 6.75 -30.46875 C 8.5 -32.09375 10.539062 -33.390625 12.875 -34.359375 C 15.207031 -35.328125 17.59375 -35.8125 20.03125 -35.8125 C 22.300781 -35.8125 24.394531 -35.539062 26.3125 -35 C 28.238281 -34.457031 29.597656 -33.914062 30.390625 -33.375 L 31.578125 -32.5625 L 28.171875 -25.75 C 27.972656 -25.914062 27.675781 -26.117188 27.28125 -26.359375 C 26.882812 -26.597656 26.085938 -26.914062 24.890625 -27.3125 C 23.703125 -27.71875 22.492188 -27.921875 21.265625 -27.921875 C 19.335938 -27.921875 17.601562 -27.609375 16.0625 -26.984375 C 14.53125 -26.359375 13.316406 -25.53125 12.421875 -24.5 C 11.523438 -23.476562 10.84375 -22.378906 10.375 -21.203125 C 9.90625 -20.023438 9.671875 -18.828125 9.671875 -17.609375 C 9.671875 -14.929688 10.671875 -12.535156 12.671875 -10.421875 C 14.679688 -8.304688 17.546875 -7.25 21.265625 -7.25 Z M 21.265625 -7.25 "/></g></g></g><g fill="#2cd3e1" fill-opacity="1"><g transform="translate(36.978375, 306.690687)"><g><path d="M 0.984375 -17.609375 C 0.984375 -22.691406 2.710938 -26.992188 6.171875 -30.515625 C 9.640625 -34.046875 13.820312 -35.8125 18.71875 -35.8125 C 23.632812 -35.8125 27.8125 -34.054688 31.25 -30.546875 C 34.6875 -27.035156 36.40625 -22.722656 36.40625 -17.609375 C 36.40625 -12.460938 34.710938 -8.132812 31.328125 -4.625 C 27.941406 -1.113281 23.738281 0.640625 18.71875 0.640625 C 13.570312 0.640625 9.328125 -1.097656 5.984375 -4.578125 C 2.648438 -8.054688 0.984375 -12.398438 0.984375 -17.609375 Z M 9.640625 -17.609375 C 9.640625 -15.753906 9.921875 -14.066406 10.484375 -12.546875 C 11.054688 -11.023438 12.050781 -9.738281 13.46875 -8.6875 C 14.882812 -7.644531 16.632812 -7.125 18.71875 -7.125 C 21.695312 -7.125 23.945312 -8.144531 25.46875 -10.1875 C 26.988281 -12.226562 27.75 -14.703125 27.75 -17.609375 C 27.75 -20.472656 26.972656 -22.9375 25.421875 -25 C 23.878906 -27.0625 21.644531 -28.09375 18.71875 -28.09375 C 15.8125 -28.09375 13.570312 -27.0625 12 -25 C 10.425781 -22.9375 9.640625 -20.472656 9.640625 -17.609375 Z M 9.640625 -17.609375 "/></g></g></g><g fill="#2cd3e1" fill-opacity="1"><g transform="translate(76.906388, 306.690687)"><g><path d="M 29.578125 -35.171875 L 29.578125 -12.484375 C 29.578125 -8.171875 28.410156 -4.90625 26.078125 -2.6875 C 23.753906 -0.46875 20.347656 0.640625 15.859375 0.640625 C 11.367188 0.640625 7.957031 -0.46875 5.625 -2.6875 C 3.289062 -4.90625 2.125 -8.171875 2.125 -12.484375 L 2.125 -35.171875 L 10.140625 -35.171875 L 10.140625 -14.828125 C 10.140625 -11.992188 10.585938 -10.019531 11.484375 -8.90625 C 12.378906 -7.800781 13.835938 -7.25 15.859375 -7.25 C 17.878906 -7.25 19.332031 -7.800781 20.21875 -8.90625 C 21.113281 -10.019531 21.5625 -11.992188 21.5625 -14.828125 L 21.5625 -35.171875 Z M 29.578125 -35.171875 "/></g></g></g><g fill="#2cd3e1" fill-opacity="1"><g transform="translate(111.167007, 306.690687)"><g><path d="M 2.5625 -35.171875 L 15.125 -35.171875 C 18.507812 -35.171875 21.265625 -34.265625 23.390625 -32.453125 C 25.523438 -30.648438 26.59375 -28.070312 26.59375 -24.71875 C 26.59375 -22.132812 25.945312 -19.96875 24.65625 -18.21875 C 23.363281 -16.46875 21.609375 -15.238281 19.390625 -14.53125 L 31.5 0 L 21.3125 0 L 10.578125 -13.890625 L 10.578125 0 L 2.5625 0 Z M 10.578125 -19.5625 L 11.515625 -19.5625 C 12.242188 -19.5625 12.863281 -19.578125 13.375 -19.609375 C 13.894531 -19.640625 14.476562 -19.738281 15.125 -19.90625 C 15.78125 -20.070312 16.304688 -20.3125 16.703125 -20.625 C 17.109375 -20.9375 17.453125 -21.390625 17.734375 -21.984375 C 18.015625 -22.585938 18.15625 -23.316406 18.15625 -24.171875 C 18.15625 -25.023438 18.015625 -25.75 17.734375 -26.34375 C 17.453125 -26.9375 17.109375 -27.390625 16.703125 -27.703125 C 16.304688 -28.015625 15.78125 -28.253906 15.125 -28.421875 C 14.476562 -28.597656 13.894531 -28.695312 13.375 -28.71875 C 12.863281 -28.75 12.242188 -28.765625 11.515625 -28.765625 L 10.578125 -28.765625 Z M 10.578125 -19.5625 "/></g></g></g><g fill="#2cd3e1" fill-opacity="1"><g transform="translate(144.23449, 306.690687)"><g><path d="M 15.515625 -35.8125 C 17.421875 -35.8125 19.28125 -35.53125 21.09375 -34.96875 C 22.914062 -34.414062 24.269531 -33.867188 25.15625 -33.328125 L 26.421875 -32.484375 L 23.1875 -26.09375 C 22.925781 -26.257812 22.566406 -26.476562 22.109375 -26.75 C 21.660156 -27.019531 20.8125 -27.378906 19.5625 -27.828125 C 18.3125 -28.285156 17.144531 -28.515625 16.0625 -28.515625 C 14.726562 -28.515625 13.695312 -28.226562 12.96875 -27.65625 C 12.25 -27.09375 11.890625 -26.328125 11.890625 -25.359375 C 11.890625 -24.878906 12.0625 -24.429688 12.40625 -24.015625 C 12.75 -23.609375 13.332031 -23.171875 14.15625 -22.703125 C 14.976562 -22.234375 15.703125 -21.851562 16.328125 -21.5625 C 16.953125 -21.28125 17.914062 -20.859375 19.21875 -20.296875 C 21.5 -19.328125 23.441406 -18.007812 25.046875 -16.34375 C 26.648438 -14.6875 27.453125 -12.804688 27.453125 -10.703125 C 27.453125 -8.679688 27.085938 -6.914062 26.359375 -5.40625 C 25.640625 -3.90625 24.644531 -2.726562 23.375 -1.875 C 22.113281 -1.019531 20.710938 -0.390625 19.171875 0.015625 C 17.640625 0.429688 15.976562 0.640625 14.1875 0.640625 C 12.65625 0.640625 11.148438 0.484375 9.671875 0.171875 C 8.191406 -0.140625 6.953125 -0.53125 5.953125 -1 C 4.960938 -1.46875 4.070312 -1.925781 3.28125 -2.375 C 2.488281 -2.832031 1.90625 -3.21875 1.53125 -3.53125 L 0.984375 -4 L 4.984375 -10.734375 C 5.328125 -10.453125 5.796875 -10.09375 6.390625 -9.65625 C 6.984375 -9.21875 8.039062 -8.628906 9.5625 -7.890625 C 11.082031 -7.148438 12.425781 -6.78125 13.59375 -6.78125 C 16.976562 -6.78125 18.671875 -7.929688 18.671875 -10.234375 C 18.671875 -10.710938 18.546875 -11.15625 18.296875 -11.5625 C 18.054688 -11.976562 17.628906 -12.390625 17.015625 -12.796875 C 16.410156 -13.210938 15.875 -13.539062 15.40625 -13.78125 C 14.9375 -14.03125 14.171875 -14.398438 13.109375 -14.890625 C 12.046875 -15.390625 11.253906 -15.769531 10.734375 -16.03125 C 8.609375 -17.082031 6.960938 -18.394531 5.796875 -19.96875 C 4.628906 -21.539062 4.046875 -23.238281 4.046875 -25.0625 C 4.046875 -28.21875 5.210938 -30.796875 7.546875 -32.796875 C 9.878906 -34.804688 12.535156 -35.8125 15.515625 -35.8125 Z M 15.515625 -35.8125 "/></g></g></g><g fill="#2cd3e1" fill-opacity="1"><g transform="translate(175.427066, 306.690687)"><g><path d="M 22.671875 -35.171875 L 22.671875 -28.125 L 10.578125 -28.125 L 10.578125 -21.140625 L 22.171875 -21.140625 L 22.171875 -14.109375 L 10.578125 -14.109375 L 10.578125 -7.03125 L 22.671875 -7.03125 L 22.671875 0 L 2.5625 0 L 2.5625 -35.171875 Z M 22.671875 -35.171875 "/></g></g></g><g fill="#11468f" fill-opacity="1"><g transform="translate(202.678113, 306.690687)"><g/></g></g><g fill="#a459d1" fill-opacity="1"><g transform="translate(216.867685, 306.690687)"><g><path d="M 21.265625 -7.25 C 22.492188 -7.25 23.679688 -7.429688 24.828125 -7.796875 C 25.984375 -8.171875 26.828125 -8.523438 27.359375 -8.859375 L 28.171875 -9.421875 L 31.578125 -2.59375 C 31.472656 -2.507812 31.316406 -2.394531 31.109375 -2.25 C 30.910156 -2.113281 30.445312 -1.851562 29.71875 -1.46875 C 29 -1.082031 28.226562 -0.75 27.40625 -0.46875 C 26.582031 -0.1875 25.503906 0.0664062 24.171875 0.296875 C 22.835938 0.523438 21.457031 0.640625 20.03125 0.640625 C 16.757812 0.640625 13.660156 -0.160156 10.734375 -1.765625 C 7.804688 -3.367188 5.445312 -5.578125 3.65625 -8.390625 C 1.875 -11.203125 0.984375 -14.242188 0.984375 -17.515625 C 0.984375 -19.992188 1.507812 -22.367188 2.5625 -24.640625 C 3.613281 -26.910156 5.007812 -28.851562 6.75 -30.46875 C 8.5 -32.09375 10.539062 -33.390625 12.875 -34.359375 C 15.207031 -35.328125 17.59375 -35.8125 20.03125 -35.8125 C 22.300781 -35.8125 24.394531 -35.539062 26.3125 -35 C 28.238281 -34.457031 29.597656 -33.914062 30.390625 -33.375 L 31.578125 -32.5625 L 28.171875 -25.75 C 27.972656 -25.914062 27.675781 -26.117188 27.28125 -26.359375 C 26.882812 -26.597656 26.085938 -26.914062 24.890625 -27.3125 C 23.703125 -27.71875 22.492188 -27.921875 21.265625 -27.921875 C 19.335938 -27.921875 17.601562 -27.609375 16.0625 -26.984375 C 14.53125 -26.359375 13.316406 -25.53125 12.421875 -24.5 C 11.523438 -23.476562 10.84375 -22.378906 10.375 -21.203125 C 9.90625 -20.023438 9.671875 -18.828125 9.671875 -17.609375 C 9.671875 -14.929688 10.671875 -12.535156 12.671875 -10.421875 C 14.679688 -8.304688 17.546875 -7.25 21.265625 -7.25 Z M 21.265625 -7.25 "/></g></g></g><g fill="#a459d1" fill-opacity="1"><g transform="translate(251.511819, 306.690687)"><g><path d="M 2.5625 -35.171875 L 15.125 -35.171875 C 18.507812 -35.171875 21.265625 -34.265625 23.390625 -32.453125 C 25.523438 -30.648438 26.59375 -28.070312 26.59375 -24.71875 C 26.59375 -22.132812 25.945312 -19.96875 24.65625 -18.21875 C 23.363281 -16.46875 21.609375 -15.238281 19.390625 -14.53125 L 31.5 0 L 21.3125 0 L 10.578125 -13.890625 L 10.578125 0 L 2.5625 0 Z M 10.578125 -19.5625 L 11.515625 -19.5625 C 12.242188 -19.5625 12.863281 -19.578125 13.375 -19.609375 C 13.894531 -19.640625 14.476562 -19.738281 15.125 -19.90625 C 15.78125 -20.070312 16.304688 -20.3125 16.703125 -20.625 C 17.109375 -20.9375 17.453125 -21.390625 17.734375 -21.984375 C 18.015625 -22.585938 18.15625 -23.316406 18.15625 -24.171875 C 18.15625 -25.023438 18.015625 -25.75 17.734375 -26.34375 C 17.453125 -26.9375 17.109375 -27.390625 16.703125 -27.703125 C 16.304688 -28.015625 15.78125 -28.253906 15.125 -28.421875 C 14.476562 -28.597656 13.894531 -28.695312 13.375 -28.71875 C 12.863281 -28.75 12.242188 -28.765625 11.515625 -28.765625 L 10.578125 -28.765625 Z M 10.578125 -19.5625 "/></g></g></g><g fill="#a459d1" fill-opacity="1"><g transform="translate(284.579298, 306.690687)"><g><path d="M 20.421875 -35.171875 L 34.609375 0 L 26 0 L 23.40625 -7.03125 L 10.015625 -7.03125 L 7.421875 0 L -1.1875 0 L 13 -35.171875 Z M 20.671875 -14.0625 L 16.75 -24.296875 L 16.671875 -24.296875 L 12.75 -14.0625 Z M 20.671875 -14.0625 "/></g></g></g><g fill="#a459d1" fill-opacity="1"><g transform="translate(320.544394, 306.690687)"><g><path d="M 22.890625 -35.171875 L 22.890625 -28.125 L 10.578125 -28.125 L 10.578125 -21.140625 L 21.953125 -21.140625 L 21.953125 -14.109375 L 10.578125 -14.109375 L 10.578125 0 L 2.5625 0 L 2.5625 -35.171875 Z M 22.890625 -35.171875 "/></g></g></g><g fill="#a459d1" fill-opacity="1"><g transform="translate(347.262701, 306.690687)"><g><path d="M 0.34375 -28.125 L 0.34375 -35.171875 L 25.0625 -35.171875 L 25.0625 -28.125 L 16.703125 -28.125 L 16.703125 0 L 8.703125 0 L 8.703125 -28.125 Z M 0.34375 -28.125 "/></g></g></g></svg>